<svg xmlns="http://www.w3.org/2000/svg"  viewBox="0 0 1334 1334">
    <path id="Selection #2" fill="white" stroke="white" stroke-width="1"
        d="M 635.00,4.21
        C 635.00,4.21 699.00,4.21 699.00,4.21
            699.00,4.21 719.00,5.00 719.00,5.00
            719.00,5.00 741.00,6.83 741.00,6.83
            779.00,10.51 816.11,16.86 853.00,26.85
            1015.89,70.96 1156.45,176.07 1243.40,321.00
            1255.06,340.43 1266.23,360.39 1275.69,381.00
            1301.39,436.96 1319.02,492.22 1329.08,553.00
            1329.08,553.00 1336.09,613.00 1336.09,613.00
            1336.09,613.00 1337.00,627.00 1337.00,627.00
            1337.00,627.00 1338.00,643.00 1338.00,643.00
            1338.00,643.00 1338.00,699.00 1338.00,699.00
            1338.00,699.00 1337.00,714.00 1337.00,714.00
            1336.52,755.46 1326.05,812.75 1315.15,853.00
            1285.55,962.31 1228.07,1061.95 1148.99,1143.00
            1148.99,1143.00 1133.00,1158.04 1133.00,1158.04
            1066.95,1221.21 987.06,1269.68 901.00,1300.31
            849.18,1318.75 795.66,1329.88 741.00,1335.17
            741.00,1335.17 714.00,1337.00 714.00,1337.00
            714.00,1337.00 699.00,1338.00 699.00,1338.00
            699.00,1338.00 643.00,1338.00 643.00,1338.00
            643.00,1338.00 623.00,1337.00 623.00,1337.00
            623.00,1337.00 613.00,1336.09 613.00,1336.09
            613.00,1336.09 567.00,1331.27 567.00,1331.27
            522.36,1324.84 477.28,1313.81 435.00,1298.05
            346.46,1265.05 266.72,1215.06 199.00,1148.99
            199.00,1148.99 183.96,1133.00 183.96,1133.00
            91.84,1036.68 30.69,910.84 11.27,779.00
            11.27,779.00 5.91,729.00 5.91,729.00
            5.91,729.00 5.00,719.00 5.00,719.00
            5.00,719.00 4.00,699.00 4.00,699.00
            4.00,699.00 4.00,643.00 4.00,643.00
            4.00,643.00 5.00,623.00 5.00,623.00
            5.00,623.00 5.91,613.00 5.91,613.00
            5.91,613.00 12.92,553.00 12.92,553.00
            22.04,497.90 38.15,444.04 60.86,393.00
            137.05,221.74 284.95,89.68 464.00,34.02
            500.93,22.55 538.66,14.33 577.00,9.28
            577.00,9.28 624.00,5.00 624.00,5.00
            628.63,4.98 630.28,5.09 635.00,4.21 Z
        M 656.00,24.19
        C 651.10,24.99 650.95,24.99 646.00,25.00
            646.00,25.00 597.00,29.28 597.00,29.28
            558.66,34.33 520.93,42.55 484.00,54.02
            331.32,101.48 200.22,204.97 118.00,342.00
            106.55,361.09 95.60,380.75 86.31,401.00
            60.61,456.96 42.98,512.22 32.92,573.00
            32.92,573.00 25.91,633.00 25.91,633.00
            25.91,633.00 25.00,646.00 25.00,646.00
            25.00,646.00 24.00,663.00 24.00,663.00
            24.00,663.00 24.00,681.00 24.00,681.00
            24.00,681.00 25.00,699.00 25.00,699.00
            25.00,699.00 26.83,721.00 26.83,721.00
            30.51,759.00 36.86,796.11 46.85,833.00
            101.94,1036.44 250.62,1200.96 448.00,1275.42
            493.42,1292.56 538.95,1304.34 587.00,1311.27
            587.00,1311.27 633.00,1316.09 633.00,1316.09
            633.00,1316.09 643.00,1317.00 643.00,1317.00
            643.00,1317.00 661.00,1318.00 661.00,1318.00
            661.00,1318.00 681.00,1318.00 681.00,1318.00
            681.00,1318.00 699.00,1317.00 699.00,1317.00
            699.00,1317.00 709.00,1316.09 709.00,1316.09
            709.00,1316.09 755.00,1311.27 755.00,1311.27
            797.85,1305.09 840.20,1294.83 881.00,1280.31
            1075.02,1211.27 1226.77,1054.90 1287.98,858.00
            1307.54,795.06 1318.10,728.86 1318.00,663.00
            1318.00,663.00 1317.00,643.00 1317.00,643.00
            1317.00,643.00 1316.09,633.00 1316.09,633.00
            1316.09,633.00 1313.15,601.00 1313.15,601.00
            1308.63,563.11 1300.68,526.53 1289.72,490.00
            1259.20,388.28 1203.09,294.94 1128.99,219.00
            1128.99,219.00 1113.00,203.96 1113.00,203.96
            1039.70,133.86 949.14,81.42 852.00,52.28
            808.51,39.23 766.15,31.20 721.00,26.83
            721.00,26.83 694.00,25.00 694.00,25.00
            694.00,25.00 684.00,24.19 684.00,24.19
            684.00,24.19 656.00,24.19 656.00,24.19 Z
        M 544.00,870.00
        C 520.61,862.20 502.07,856.63 480.00,844.69
            440.72,823.44 409.14,792.39 391.43,751.00
            384.06,733.78 379.53,715.45 376.43,697.00
            376.43,697.00 374.17,679.00 374.17,679.00
            373.88,675.98 374.26,672.81 372.83,670.02
            369.39,663.35 360.68,662.74 351.00,654.68
            335.76,641.98 327.50,627.75 325.92,608.00
            325.65,604.71 324.94,602.38 325.18,599.00
            326.49,580.61 330.06,569.59 341.81,555.00
            348.96,546.12 358.64,541.96 360.57,535.00
            360.57,535.00 361.53,528.00 361.53,528.00
            361.53,528.00 366.00,513.00 366.00,513.00
            366.00,513.00 372.61,471.00 372.61,471.00
            377.33,445.82 385.65,416.26 396.31,393.00
            406.30,371.18 420.10,347.85 436.17,330.00
            483.24,277.70 541.82,255.61 610.00,246.72
            610.00,246.72 634.00,244.00 634.00,244.00
            634.00,244.00 643.00,244.00 643.00,244.00
            643.00,244.00 653.00,242.96 653.00,242.96
            653.00,242.96 665.00,242.96 665.00,242.96
            665.00,242.96 679.00,242.00 679.00,242.00
            679.00,242.00 689.00,242.96 689.00,242.96
            689.00,242.96 701.00,242.96 701.00,242.96
            701.00,242.96 724.00,244.83 724.00,244.83
            783.06,250.55 837.74,264.84 885.00,302.60
            897.45,312.54 907.27,321.80 917.56,334.00
            945.76,367.45 963.62,409.61 973.35,452.00
            973.35,452.00 979.73,484.00 979.73,484.00
            979.73,484.00 984.42,515.00 984.42,515.00
            984.42,515.00 988.47,528.00 988.47,528.00
            989.32,531.70 988.55,534.54 990.74,537.99
            993.29,542.02 1001.36,547.14 1005.71,552.01
            1018.47,566.32 1023.70,579.00 1024.91,598.00
            1025.18,602.22 1024.63,604.04 1024.15,608.00
            1021.30,631.88 1013.28,631.24 1013.00,655.00
            1013.00,655.00 1012.09,665.00 1012.09,665.00
            1010.42,689.21 1004.32,717.74 988.54,737.00
            977.03,751.04 965.57,755.03 954.29,768.00
            954.29,768.00 927.91,803.00 927.91,803.00
            902.72,830.13 870.08,850.30 835.00,862.00
            826.87,864.71 815.27,868.83 807.00,870.00
            809.44,876.39 815.43,883.88 819.19,890.00
             829.70,907.13 846.76,936.81 847.00,957.00
             847.17,972.23 845.02,983.98 829.00,990.53
             820.42,994.03 815.67,992.15 812.21,994.17
             809.19,995.94 807.18,1000.93 804.62,1003.96
             799.87,1009.61 796.89,1009.99 790.00,1010.00
             790.00,1010.00 560.00,1010.00 560.00,1010.00
             551.90,1009.98 549.66,1008.75 544.55,1002.00
             542.48,999.26 541.10,995.72 537.95,994.02
             535.76,992.85 531.65,992.95 529.00,992.57
             522.02,991.56 517.56,990.36 512.09,985.53
             491.13,967.03 507.95,929.44 519.00,910.00
             525.59,898.41 536.11,880.30 544.00,870.00 Z
           M 960.00,518.00
           C 952.19,458.76 940.78,405.75 903.87,357.00
             903.87,357.00 885.96,335.09 885.96,335.09
             879.94,329.25 872.70,324.43 865.99,319.46
             823.53,288.03 777.92,275.02 726.00,269.83
             726.00,269.83 703.00,268.00 703.00,268.00
             703.00,268.00 671.00,268.00 671.00,268.00
             671.00,268.00 657.00,267.02 657.00,267.02
             657.00,267.02 636.00,269.00 636.00,269.00
             636.00,269.00 628.00,269.00 628.00,269.00
             609.12,270.97 590.39,274.03 572.00,278.63
             540.11,286.60 510.22,299.51 484.00,319.50
             484.00,319.50 475.00,326.18 475.00,326.18
             455.32,343.48 433.79,371.35 422.26,395.00
             422.26,395.00 413.91,415.00 413.91,415.00
             413.91,415.00 408.03,430.00 408.03,430.00
             402.67,446.93 396.04,475.40 393.08,493.00
             393.08,493.00 390.00,518.00 390.00,518.00
             390.00,518.00 397.00,518.00 397.00,518.00
             404.74,517.89 416.96,512.32 420.35,504.99
             420.35,504.99 426.20,474.00 426.20,474.00
             429.97,455.14 436.81,429.42 446.60,413.00
             450.41,406.62 457.73,397.03 464.00,393.14
             469.49,389.73 481.52,387.79 488.00,388.04
             488.00,388.04 531.00,392.85 531.00,392.85
             531.00,392.85 609.00,401.83 609.00,401.83
             635.97,404.44 662.89,405.04 690.00,405.00
             690.00,405.00 702.00,404.04 702.00,404.04
             702.00,404.04 713.00,404.04 713.00,404.04
             713.00,404.04 723.00,403.09 723.00,403.09
             723.00,403.09 763.00,399.28 763.00,399.28
             763.00,399.28 836.00,390.84 836.00,390.84
             836.00,390.84 862.00,388.04 862.00,388.04
             899.87,386.57 912.78,428.08 919.88,458.00
             919.88,458.00 923.60,474.00 923.60,474.00
             923.60,474.00 926.87,492.00 926.87,492.00
             927.43,496.01 928.06,502.58 930.09,505.96
             932.64,510.23 942.16,516.20 947.00,517.45
             950.06,518.23 956.57,518.00 960.00,518.00 Z
           M 906.00,517.00
           C 900.86,489.70 899.44,471.03 890.33,444.00
             887.53,435.67 880.37,419.87 872.96,415.06
             866.27,410.88 851.05,414.43 843.00,415.06
             843.00,415.06 827.00,416.84 827.00,416.84
             827.00,416.84 760.00,424.83 760.00,424.83
             760.00,424.83 724.00,428.09 724.00,428.09
             724.00,428.09 714.00,429.00 714.00,429.00
             714.00,429.00 695.00,430.00 695.00,430.00
             695.00,430.00 661.00,430.00 661.00,430.00
             661.00,430.00 644.00,429.00 644.00,429.00
             644.00,429.00 631.00,428.09 631.00,428.09
             631.00,428.09 612.00,426.83 612.00,426.83
             612.00,426.83 523.00,416.84 523.00,416.84
             523.00,416.84 487.00,413.01 487.00,413.01
             484.47,412.96 481.36,412.89 479.00,413.85
             471.82,416.78 465.31,429.99 462.45,437.00
             452.93,460.33 450.32,478.62 446.73,503.00
             446.73,503.00 444.00,518.00 444.00,518.00
             444.00,518.00 741.00,518.00 741.00,518.00
             741.00,518.00 890.00,518.00 890.00,518.00
             890.00,518.00 906.00,517.00 906.00,517.00 Z
           M 860.00,557.00
           C 860.00,557.00 818.00,557.00 818.00,557.00
             818.00,557.00 806.00,598.00 806.00,598.00
             806.00,598.00 825.00,599.00 825.00,599.00
             824.61,606.88 816.50,631.69 813.86,641.00
             812.85,644.57 809.37,653.62 811.06,656.79
             812.46,659.40 816.31,660.77 819.00,661.51
             825.34,663.25 841.52,663.85 846.50,659.30
             849.06,656.97 850.28,651.32 851.34,648.00
             854.36,638.59 858.78,628.96 859.00,619.00
             859.00,619.00 842.00,618.00 842.00,618.00
             842.00,618.00 854.43,576.00 854.43,576.00
             854.43,576.00 860.00,557.00 860.00,557.00 Z
           M 543.00,558.00
           C 543.00,558.00 512.00,558.00 512.00,558.00
             508.79,558.02 504.96,557.89 502.22,559.85
             498.80,562.31 497.71,568.13 496.58,572.00
             494.12,580.38 490.32,589.43 489.00,598.00
             489.00,598.00 509.00,598.00 509.00,598.00
             509.00,598.00 497.58,640.00 497.58,640.00
             496.50,643.77 493.08,653.24 494.58,656.66
             495.88,659.64 500.12,660.68 503.00,661.33
             509.72,662.87 524.14,664.56 529.58,659.49
             532.04,657.20 533.57,651.28 534.67,648.00
             537.13,640.61 542.35,626.19 543.00,619.00
             543.00,619.00 525.00,619.00 525.00,619.00
             525.00,619.00 530.66,600.00 530.66,600.00
             530.66,600.00 543.00,558.00 543.00,558.00 Z
           M 365.00,564.00
           C 357.00,566.37 351.94,576.56 349.34,584.00
             343.07,601.98 346.56,620.25 360.01,634.00
             364.50,638.58 366.14,640.33 372.00,643.00
             373.70,637.03 373.00,628.38 373.00,622.00
             373.00,622.00 373.00,583.00 373.00,583.00
             372.98,572.03 370.27,573.16 365.00,564.00 Z
           M 978.00,643.00
           C 998.04,633.16 1006.89,610.18 1002.33,589.00
             1001.10,583.27 998.37,576.76 994.96,572.00
             993.63,570.16 991.52,567.20 988.99,567.20
             985.69,567.20 979.68,574.05 978.60,577.00
             977.88,578.94 978.00,581.91 978.00,584.00
             978.00,584.00 978.00,612.00 978.00,612.00
             978.00,612.00 977.00,630.00 977.00,630.00
             977.00,630.00 978.00,643.00 978.00,643.00 Z
           M 951.00,638.00
           C 938.00,668.17 908.39,688.34 877.00,695.76
             858.19,700.21 844.93,700.03 826.00,700.00
             809.23,699.97 784.52,694.44 769.00,687.99
             755.19,682.24 741.75,673.41 731.17,662.83
             716.73,648.39 707.02,630.57 699.00,612.00
             696.54,606.31 690.83,591.32 685.82,588.45
             682.83,586.75 678.38,586.94 675.00,587.00
             672.52,587.05 670.31,587.02 668.22,588.60
             664.58,591.36 660.69,605.04 658.57,610.00
             648.06,634.66 636.44,651.38 617.00,669.96
             596.39,689.67 565.28,699.96 537.00,700.00
             537.00,700.00 523.00,700.00 523.00,700.00
             508.35,700.00 500.84,700.37 486.00,697.92
             472.01,695.61 452.93,690.97 441.00,683.30
             430.34,676.45 414.38,660.64 407.54,650.00
             407.54,650.00 398.00,631.00 398.00,631.00
             398.00,665.79 397.21,692.07 408.51,726.00
             413.34,740.49 419.75,754.35 428.34,767.00
             450.23,799.21 487.54,824.33 524.00,837.31
             537.28,842.03 551.25,845.39 565.00,848.42
             594.07,854.84 612.05,857.65 642.00,858.00
             642.00,858.00 657.00,859.00 657.00,859.00
             657.00,859.00 711.00,859.00 711.00,859.00
             711.00,859.00 724.00,858.04 724.00,858.04
             741.89,857.26 759.31,855.38 777.00,852.41
             796.18,849.19 822.25,843.16 840.00,835.57
             850.21,831.21 859.52,825.12 869.00,819.40
             882.59,811.20 892.77,803.23 904.00,792.00
             909.69,786.31 915.20,781.21 919.00,774.00
             919.00,774.00 899.00,775.84 899.00,775.84
             895.96,776.16 889.84,776.48 887.21,777.72
             884.83,778.84 880.56,784.55 878.00,786.90
             871.82,792.53 863.10,794.54 855.00,792.21
             851.94,791.33 848.51,789.46 846.04,787.47
             826.82,771.99 837.72,744.31 861.00,742.33
             868.21,741.71 874.77,745.68 879.83,750.44
             882.07,752.55 884.54,756.32 887.17,757.40
             888.78,758.06 891.26,757.99 893.00,758.00
             903.61,758.07 917.90,756.51 928.00,753.28
             929.95,752.65 931.76,752.07 933.19,750.49
             935.53,747.90 941.12,731.21 942.41,727.00
             947.62,709.98 949.87,695.67 951.09,678.00
             951.09,678.00 952.00,668.00 952.00,668.00
             952.07,661.82 952.86,642.70 951.00,638.00 Z
           M 994.00,659.00
           C 990.31,660.05 980.08,664.37 977.98,667.39
             976.00,670.26 975.30,684.63 974.84,689.00
             974.84,689.00 970.00,719.00 970.00,719.00
             970.00,719.00 967.00,733.00 967.00,733.00
             974.75,727.40 979.53,718.63 983.28,710.00
             990.91,692.45 994.00,678.08 994.00,659.00 Z
           M 920.00,773.00
           C 920.00,773.00 919.00,773.00 919.00,773.00
             919.00,773.00 920.00,774.00 920.00,774.00
             920.00,774.00 920.00,773.00 920.00,773.00 Z
           M 568.00,875.00
           C 561.89,878.32 561.42,880.63 557.41,886.00
             552.16,893.04 546.59,900.97 543.00,909.00
             543.00,909.00 561.00,917.00 561.00,917.00
             561.00,917.00 566.60,890.00 566.60,890.00
             567.74,884.36 569.49,880.69 568.00,875.00 Z
           M 789.00,918.00
           C 792.49,916.78 804.27,912.14 805.30,908.66
             805.94,906.50 804.28,904.05 803.22,902.29
             803.22,902.29 793.85,888.00 793.85,888.00
             791.40,884.60 785.00,872.59 779.61,877.02
             777.10,879.09 779.66,885.34 780.42,888.00
             780.42,888.00 789.00,918.00 789.00,918.00 Z
           M 649.00,937.00
           C 647.64,929.85 643.04,925.83 638.86,920.00
             638.86,920.00 621.88,896.00 621.88,896.00
             614.83,886.43 614.45,882.04 602.00,882.00
             603.99,888.98 613.82,906.15 617.75,914.00
             619.93,918.34 624.61,927.61 628.18,930.49
             631.59,933.24 644.28,936.05 649.00,937.00 Z
           M 746.00,883.00
           C 746.00,883.00 734.17,886.01 734.17,886.01
             734.17,886.01 724.22,898.91 724.22,898.91
             724.22,898.91 717.01,907.01 717.01,907.01
             717.01,907.01 709.10,918.00 709.10,918.00
             709.10,918.00 697.00,935.00 697.00,935.00
             702.52,934.74 715.72,932.09 719.82,928.58
             724.90,924.23 729.90,912.93 733.88,907.00
             738.05,900.80 745.23,890.25 746.00,883.00 Z
           M 656.00,931.00
           C 656.00,931.00 664.58,913.00 664.58,913.00
             665.61,910.62 667.59,906.50 667.58,904.00
             667.56,900.70 665.23,897.56 663.36,895.00
             655.64,884.42 649.85,886.97 638.00,885.83
             638.00,885.83 623.00,884.00 623.00,884.00
             626.29,892.31 634.74,902.42 639.98,910.00
             644.78,916.95 649.35,925.80 656.00,931.00 Z
           M 724.00,886.00
           C 716.67,886.00 696.11,886.19 690.01,888.72
             685.81,890.47 679.63,898.38 679.40,903.00
             679.18,907.53 687.47,925.44 690.00,930.00
             690.00,930.00 711.37,904.00 711.37,904.00
             711.37,904.00 724.00,886.00 724.00,886.00 Z
           M 593.00,892.00
           C 593.00,892.00 582.28,924.00 582.28,924.00
             582.28,924.00 563.00,988.00 563.00,988.00
             563.00,988.00 599.00,989.00 599.00,989.00
             599.00,989.00 614.00,990.00 614.00,990.00
             614.00,990.00 665.00,990.00 665.00,990.00
             665.00,990.00 664.00,977.00 664.00,977.00
             664.00,977.00 664.00,952.00 664.00,952.00
             664.00,952.00 632.00,944.13 632.00,944.13
             632.00,944.13 618.49,939.49 618.49,939.49
             618.49,939.49 612.25,928.00 612.25,928.00
             612.25,928.00 601.25,906.00 601.25,906.00
             601.25,906.00 593.00,892.00 593.00,892.00 Z
           M 759.00,892.00
           C 759.00,892.00 757.00,892.00 757.00,892.00
             757.00,892.00 738.28,924.00 738.28,924.00
             735.95,928.10 731.70,936.51 727.90,938.91
             727.90,938.91 689.00,951.00 689.00,951.00
             691.11,952.71 692.98,954.10 693.46,957.00
             694.29,961.98 688.66,965.32 685.02,964.30
             681.54,963.32 680.46,959.86 679.00,957.00
             679.00,969.58 678.73,977.32 681.00,990.00
             681.00,990.00 746.00,990.00 746.00,990.00
             746.00,990.00 762.00,989.00 762.00,989.00
             762.00,989.00 787.00,989.00 787.00,989.00
             787.00,989.00 779.42,961.00 779.42,961.00
             779.42,961.00 763.57,907.00 763.57,907.00
             763.57,907.00 759.00,892.00 759.00,892.00 Z
           M 555.00,937.00
           C 555.00,937.00 532.00,926.00 532.00,926.00
             527.84,936.40 524.63,942.62 522.68,954.00
             522.03,957.28 521.46,963.85 522.68,966.91
             525.55,973.66 538.91,974.93 543.61,970.57
             548.89,965.68 553.95,944.47 555.00,937.00 Z
           M 817.00,926.00
           C 813.00,927.72 798.84,933.90 797.06,937.21
             795.60,939.94 797.37,945.11 798.15,948.00
             799.49,952.95 803.14,967.40 806.42,970.57
             808.36,972.45 810.41,972.81 813.00,972.96
             820.85,973.40 827.25,970.69 827.90,962.00
             828.26,957.21 826.41,949.64 824.98,945.00
             822.03,935.48 820.60,934.36 817.00,926.00 Z" />
</svg>
